<svg width="32" height="32" viewBox="0 0 32 32" fill="none" xmlns="http://www.w3.org/2000/svg">
<path d="M11.6944 29.8599C11.286 30.1877 11.0082 29.8586 10.7195 29.6998C9.71056 29.145 8.70723 28.5795 7.70996 28.0037C6.98297 27.584 6.27157 27.137 5.54842 26.7104C4.44603 26.06 3.34258 25.4114 2.23164 24.776C2.04861 24.6714 1.99963 24.5576 2 24.3563C2.00634 20.9204 2.0064 17.4844 2.00038 14.0485C1.99998 13.8188 2.07502 13.7184 2.28351 13.6005C3.63993 12.8336 4.98288 12.0422 6.32181 11.2445C6.56284 11.1008 6.75407 11.0732 7.00509 11.2214C8.32994 12.0036 9.66327 12.7713 10.9947 13.5422C11.09 13.5974 11.1937 13.6381 11.3336 13.7046C11.3336 13.5471 11.3336 13.4146 11.3336 13.2822C11.3336 11.7309 11.3365 10.1796 11.33 8.62833C11.3292 8.4333 11.3663 8.31753 11.557 8.20874C13.4525 7.12749 15.3409 6.03362 17.2273 4.93642C18.2549 4.33875 19.2784 3.73359 20.2959 3.1187C20.5457 2.96772 20.7597 2.95822 21.0108 3.10485C23.302 4.44278 25.5971 5.77396 27.8898 7.10924C28.5222 7.4776 29.1548 7.8462 29.7766 8.23218C29.8796 8.29615 29.991 8.45014 29.9914 8.56289C30.0027 12.05 30.0021 15.5373 29.994 19.0244C29.9938 19.1242 29.9184 19.2677 29.835 19.3169C28.4267 20.1483 27.0095 20.9645 25.5995 21.7931C25.3229 21.9557 25.0861 21.8338 24.8686 21.7114C23.9195 21.1775 22.9799 20.6264 22.04 20.076C21.5946 19.8152 21.1562 19.5421 20.6717 19.2486C20.6717 20.9113 20.6576 22.52 20.6818 24.1281C20.6877 24.5214 20.5673 24.7054 20.2189 24.8988C18.7152 25.7339 17.2386 26.6185 15.7528 27.4863C14.4081 28.2717 13.0643 29.0586 11.6944 29.8599ZM12.7141 23.7527C13.7422 23.1575 14.7738 22.5682 15.7931 21.9581C15.8995 21.8944 15.9899 21.7074 15.991 21.5768C16.0044 19.9882 16.0002 18.3995 15.9982 16.8109C15.9981 16.7327 15.9768 16.6546 15.9648 16.5727C14.4199 17.466 12.9041 18.3425 11.3272 19.2543C11.3272 17.3995 11.3272 15.6491 11.3272 13.8652C11.2331 13.9088 11.1677 13.933 11.1083 13.9676C9.74214 14.7621 8.38194 15.5672 7.0065 16.3451C6.73803 16.4969 6.66829 16.6589 6.6719 16.9557C6.69002 18.4416 6.68558 19.928 6.67566 21.414C6.67367 21.7117 6.68487 21.9337 7.03207 22.0584C7.32983 22.1654 7.58358 22.3926 7.86292 22.556C8.95394 23.1942 10.0444 23.8336 11.1449 24.455C11.2495 24.5141 11.4449 24.4948 11.5598 24.4359C11.9405 24.241 12.3036 24.0113 12.7141 23.7527ZM17.8391 10.0698C17.306 10.3756 16.7785 10.6923 16.2366 10.9814C16.0479 11.082 16.0038 11.2006 16.0048 11.4008C16.0128 12.9775 16.0088 14.5542 16.0105 16.1309C16.0106 16.2217 16.0287 16.3124 16.0386 16.4053C17.5861 15.5113 19.1018 14.6357 20.6793 13.7244C20.6793 15.579 20.6793 17.3294 20.6793 19.135C22.2503 18.2227 23.7799 17.3344 25.3287 16.435C25.3287 14.7474 25.3329 13.043 25.3191 11.3387C25.3181 11.2263 25.2044 11.0718 25.1003 11.0098C23.7033 10.1782 22.297 9.36239 20.8979 8.53438C20.7202 8.42922 20.5856 8.45356 20.4193 8.5517C19.576 9.04927 18.7268 9.5369 17.8391 10.0698Z" fill="#CEFF1A"/>
</svg>
